<?xml version="1.0" encoding="UTF-8" standalone="no"?>
<svg
   xmlns:dc="http://purl.org/dc/elements/1.1/"
   xmlns:cc="http://creativecommons.org/ns#"
   xmlns:rdf="http://www.w3.org/1999/02/22-rdf-syntax-ns#"
   xmlns:svg="http://www.w3.org/2000/svg"
   xmlns="http://www.w3.org/2000/svg"
   xmlns:sodipodi="http://sodipodi.sourceforge.net/DTD/sodipodi-0.dtd"
   xmlns:inkscape="http://www.inkscape.org/namespaces/inkscape"
   viewBox="0 0 9.7955132 9.3546171"
   xml:space="preserve"
   id="svg2"
   version="1.1"
   sodipodi:docname="title-stars.svg"
   width="9.7955132"
   height="9.3546171"
   inkscape:version="0.92.2 (unknown)"><sodipodi:namedview
     pagecolor="#ffffff"
     bordercolor="#666666"
     borderopacity="1"
     objecttolerance="10"
     gridtolerance="10"
     guidetolerance="10"
     inkscape:pageopacity="0"
     inkscape:pageshadow="2"
     inkscape:window-width="1859"
     inkscape:window-height="1056"
     id="namedview16"
     showgrid="false"
     inkscape:zoom="21.690479"
     inkscape:cx="6.9506535"
     inkscape:cy="0.90403427"
     inkscape:window-x="1427"
     inkscape:window-y="24"
     inkscape:window-maximized="1"
     inkscape:current-layer="g10" /><metadata
     id="metadata8"><rdf:RDF><cc:Work
         rdf:about=""><dc:format>image/svg+xml</dc:format><dc:type
           rdf:resource="http://purl.org/dc/dcmitype/StillImage" /></cc:Work></rdf:RDF></metadata><defs
     id="defs6"><clipPath
       id="clipPath18"
       clipPathUnits="userSpaceOnUse"><path
         id="path16"
         d="M 0,7.016 H 44.951 V 0 H 0 Z"
         inkscape:connector-curvature="0" /></clipPath></defs><g
     transform="matrix(1.3333333,0,0,-1.3333333,-4.5500326e-4,9.3546664)"
     id="g10"><g
       id="g12"><g
         clip-path="url(#clipPath18)"
         id="g14"><g
           transform="translate(3.9423,6.8493)"
           id="g20"><path
             id="path22"
             style="fill:#222;fill-opacity:1;fill-rule:nonzero;stroke:none"
             d="m 0,0 0.903,-1.829 c 0.044,-0.089 0.128,-0.15 0.226,-0.164 L 3.147,-2.287 C 3.393,-2.322 3.492,-2.625 3.314,-2.798 L 1.853,-4.222 C 1.782,-4.291 1.75,-4.39 1.766,-4.488 l 0.345,-2.01 C 2.153,-6.743 1.896,-6.93 1.676,-6.814 l -1.805,0.949 c -0.088,0.046 -0.192,0.046 -0.279,0 l -1.806,-0.949 c -0.22,-0.116 -0.477,0.071 -0.435,0.316 l 0.345,2.01 c 0.016,0.098 -0.016,0.197 -0.087,0.266 l -1.46,1.424 c -0.178,0.173 -0.08,0.476 0.166,0.511 l 2.018,0.294 c 0.098,0.014 0.183,0.075 0.226,0.164 L -0.538,0 C -0.428,0.223 -0.11,0.223 0,0"
             inkscape:connector-curvature="0" /></g><g
           transform="translate(23.2881,6.8493)"
           id="g24" /><g
           transform="translate(41.5462,6.8493)"
           id="g28" /></g></g></g></svg>